<svg width="128" height="128" viewBox="0 0 128 128" fill="none" xmlns="http://www.w3.org/2000/svg">
<g id="channelTextLockedThread 1">
<g id="surface1">
<path id="Vector" d="M120.25 26.1523V20.8359C120.25 14.8828 115.051 10.207 109.453 10.207C103.852 10.207 98.7852 14.8828 98.7852 20.8359V26.1523H94.7305C94.0234 26.1523 93.4531 26.7227 93.4531 27.4258V51.4531C93.4531 52.1562 94.0234 52.7305 94.7305 52.7305H124.172C124.879 52.7305 125.453 52.1562 125.453 51.4531V27.4258C125.453 26.7227 124.879 26.1523 124.172 26.1523H120.25ZM114.785 26.1523H104.117V20.8359C104.117 17.7969 106.609 15.5195 109.453 15.5195C112.297 15.5195 114.785 17.7969 114.785 20.8359V26.1523Z" fill="#8A8E93"/>
<path id="Vector_2" d="M82.3477 37.207C83.0547 37.207 83.6251 37.7773 83.6251 38.4844V46.5625C83.6251 47.2656 83.0547 47.8359 82.3477 47.8359H50.1875L44.5352 79.7305H56.3204V90.3594H42.668L39.2696 109.43C39.043 110.699 37.9376 111.621 36.6446 111.621H31.3946C29.7344 111.621 28.4805 110.129 28.7696 108.5L32.0001 90.3594H13.8399C12.1836 90.3594 10.9297 88.8711 11.2149 87.2461L12.1485 81.9297C12.3711 80.6602 13.4805 79.7305 14.7735 79.7305H33.8672L39.5196 47.8359H21.3594C19.7032 47.8359 18.4493 46.3477 18.7344 44.7227L19.668 39.4062C19.8907 38.1367 21.0001 37.207 22.293 37.207H41.3868L44.7813 18.1367C45.0079 16.8711 46.1172 15.9453 47.4102 15.9453H52.6602C54.3165 15.9453 55.5743 17.4375 55.2852 19.0664L52.0547 37.207H82.3477Z" fill="#8A8E93"/>
<path id="Vector_3" d="M71.668 68.8867C68.8398 68.8867 66.5469 71.1719 66.5469 73.9922V107.484C66.5469 110.305 68.8398 112.59 71.668 112.59H76.7891C77.4961 112.59 78.0664 113.16 78.0664 113.863V124.699C78.0664 125.805 79.3828 126.387 80.207 125.645L93.2461 113.906C94.1875 113.059 95.4102 112.59 96.6797 112.59H120.309C123.137 112.59 125.426 110.305 125.426 107.484V73.9922C125.426 71.1719 123.137 68.8867 120.309 68.8867H71.668Z" fill="#8A8E93"/>
</g>
</g>
</svg>
