<svg width="128" height="128" viewBox="0 0 128 128" fill="none" xmlns="http://www.w3.org/2000/svg">
<g id="chatGiftNitro 1">
<g id="surface1">
<path id="Vector" fill-rule="evenodd" clip-rule="evenodd" d="M90.0703 42.9453H106.676C112.566 42.9453 117.344 47.7617 117.344 53.6836V64.4219H10.6758V53.6836C10.6758 47.7617 15.4609 42.9453 21.3438 42.9453H37.9531C35.5469 41.6836 33.2695 40.1445 31.3672 38.2344C25.125 31.9492 25.125 21.7344 31.3672 15.457C37.4102 9.375 47.9375 9.375 53.9883 15.4453C62.7188 24.2344 63.8984 40.7773 64 42.6367C64.0078 42.6953 63.9922 42.7539 63.9805 42.8086C63.9688 42.8516 63.957 42.8984 63.957 42.9453H64.0625C64.0625 42.8984 64.0547 42.8516 64.043 42.8047L64.0391 42.8008C64.0273 42.75 64.0156 42.6992 64.0234 42.6406C64.1289 40.7812 65.3008 24.2422 74.0312 15.4531C80.0859 9.36719 90.6016 9.375 96.6562 15.4453C102.891 21.7383 102.891 31.957 96.6562 38.2344C94.7539 40.1445 92.4766 41.6836 90.0703 42.9453ZM75.6055 36.6367C76.5938 31.8984 78.4219 26.2148 81.5742 23.0508C82.5781 22.0273 83.9141 21.4766 85.3438 21.4766C86.7734 21.4766 88.1133 22.0273 89.1094 23.0391C91.1914 25.1367 91.1953 28.543 89.1133 30.6406C85.9609 33.8125 80.3164 35.6602 75.6055 36.6367ZM16.0117 75.1602V107.375C16.0117 113.297 20.7969 118.113 26.6758 118.113H58.6758V75.1602H16.0117ZM69.3438 75.1602V118.113H101.344C107.23 118.113 112.012 113.297 112.012 107.375V75.1602H69.3438ZM38.9062 23.043C36.8281 25.1367 36.8281 28.543 38.9062 30.6406C42.0312 33.7852 47.7188 35.6445 52.4102 36.6289C51.4297 31.8906 49.5938 26.2109 46.4492 23.043C45.4453 22.0273 44.1055 21.4766 42.6758 21.4766C41.25 21.4766 39.9102 22.0273 38.9062 23.043Z" fill="#B9BBBE"/>
</g>
</g>
</svg>
