<svg width="128" height="128" viewBox="0 0 128 128" fill="none" xmlns="http://www.w3.org/2000/svg">
<g id="guildRole 1">
<g id="surface1">
<path id="Vector" fill-rule="evenodd" clip-rule="evenodd" d="M110.547 32.7266L66.3906 8.19922C64.9023 7.375 63.1094 7.375 61.6211 8.19922L17.4648 32.7266C15.9102 33.5898 14.9453 35.2305 14.9453 37.0117C14.9453 40.4141 15.5039 120.414 64.0039 120.414C112.508 120.414 113.066 40.4141 113.066 37.0117C113.066 35.2305 112.102 33.5898 110.547 32.7266ZM64.0039 37.0117C70.7812 37.0117 76.2695 42.5 76.2695 49.2773C76.2695 56.0508 70.7812 61.543 64.0039 61.543C57.2305 61.543 51.7383 56.0508 51.7383 49.2773C51.7383 42.5 57.2305 37.0117 64.0039 37.0117ZM45.6094 86.0781C45.6094 74.7891 52.7148 67.6797 64.0039 67.6797C75.293 67.6797 82.4023 74.7891 82.4023 86.0781H45.6094Z" fill="#9AAAB5"/>
</g>
</g>
</svg>
