<svg width="20" height="20" viewBox="0 0 20 20" fill="none" xmlns="http://www.w3.org/2000/svg">
<path d="M11 2.00039C11.0002 1.44811 10.5527 1.00022 10.0004 1C9.44808 0.999784 9.00019 1.44732 8.99997 1.99961L8.99684 10.0031C8.99663 10.5553 9.44417 11.0032 9.99645 11.0034C10.5487 11.0037 10.9966 10.5561 10.9968 10.0038L11 2.00039Z" fill="#27272F"/>
<path d="M2 10.9831C2 8.77402 2.89541 6.77405 4.34308 5.32634L5.7573 6.74055C4.67155 7.82633 4 9.32631 4 10.9831C4 14.2968 6.68629 16.9831 10 16.9831C13.3137 16.9831 16 14.2968 16 10.9831C16 9.32627 15.3284 7.82627 14.2426 6.74048L15.6568 5.32627C17.1046 6.77398 18 8.77399 18 10.9831C18 15.4014 14.4183 18.9831 10 18.9831C5.58172 18.9831 2 15.4014 2 10.9831Z" fill="#27272F"/>
</svg>
