<svg width="128" height="128" viewBox="0 0 128 128" fill="none" xmlns="http://www.w3.org/2000/svg">
<g id="iconStarFull 1">
<g id="surface1">
<path id="Vector" d="M106.664 47.2031L84.2655 45.1055C82.1288 45.1055 80.5311 43.5312 79.996 41.957L71.4647 21.5039C69.8632 17.3086 63.4647 17.3086 61.8632 21.5039L52.2655 42.4844C51.7304 44.0547 50.1288 45.1055 47.996 45.6289L25.5975 47.2031C20.7968 47.7266 19.1952 53.4961 22.3983 56.6445L39.4647 71.3281C41.0624 72.3789 41.5975 74.4766 41.0624 76.5742L35.7303 98.0781C34.6639 102.797 39.4647 105.945 43.7304 103.848L62.9296 92.3086C64.5311 91.2578 66.6639 91.2578 68.2655 92.3086L87.4647 103.848C91.7303 106.469 96.5311 102.797 95.4647 98.0781L90.1288 76.5742C89.5975 74.4766 90.1288 72.9023 91.7303 71.3281L108.797 56.6445C113.598 53.4961 111.465 47.7266 106.664 47.2031ZM66.1288 80.7695L45.8632 92.832L51.1952 70.2812L33.5975 55.0703L57.0624 52.9727L66.1288 31.9922L75.1952 52.9727L98.6639 55.0703L81.0624 70.2812L86.3983 92.832L66.1288 80.7695Z" fill="#F7A530"/>
<path id="Vector_2" d="M66.1289 80.7695L45.8633 92.832L51.1953 70.2812L33.5977 55.0703L57.0625 52.9727L66.1289 31.9922L75.1953 52.9727L98.6641 55.0703L81.0625 70.2812L86.3984 92.832L66.1289 80.7695Z" fill="#F7A530"/>
</g>
</g>
</svg>
