<svg width="24" height="24" viewBox="0 0 24 24" fill="none" xmlns="http://www.w3.org/2000/svg">
<rect x="0.5" y="0.5" width="23" height="23" rx="11.5" fill="#FFAC33"/>
<path d="M6.66656 7.91064C6.66656 7.55521 7.00396 7.41304 7.00396 7.41304L11.9722 5L16.9878 7.41304C16.9878 7.41304 17.3334 7.4926 17.3334 7.91325V8.3313H6.66656V7.91064Z" fill="#FFE8B6"/>
<path d="M17.0004 9.20198C17.0004 8.82111 16.6819 8.51263 16.2897 8.51263H7.66681C7.27391 8.51263 7.00021 8.82111 7.00021 9.20198C7.00021 9.46089 7.12886 9.68394 7.33382 9.80198V10.2363H8.66702V9.89133H10.0002V10.2363H11.3334V9.89133H12.6666V10.2363H13.9998V9.89133H15.333V10.2363H16.6668V9.78437C16.8667 9.66176 17.0004 9.4472 17.0004 9.20198ZM18 16.4828C18 16.62 17.9473 16.7515 17.8535 16.8485C17.7597 16.9455 17.6325 17 17.4999 17H6.50011C6.36747 17 6.24027 16.9455 6.14648 16.8485C6.05269 16.7515 6 16.62 6 16.4828C6 16.3457 6.05269 16.2141 6.14648 16.1171C6.24027 16.0201 6.36747 15.9657 6.50011 15.9657H17.5005C17.7761 15.9657 18 16.1972 18 16.4828Z" fill="#F4900C"/>
<path d="M17.3334 8.7872C17.3334 8.8787 17.2982 8.96645 17.2357 9.03115C17.1731 9.09585 17.0883 9.1322 16.9998 9.1322H6.99957C6.91464 9.1268 6.8349 9.0881 6.7766 9.02399C6.71831 8.95988 6.68585 8.8752 6.68585 8.7872C6.68585 8.6992 6.71831 8.61452 6.7766 8.55041C6.8349 8.4863 6.91464 8.4476 6.99957 8.4422L16.9998 8.44416C17.0435 8.44398 17.0868 8.45273 17.1272 8.46988C17.1676 8.48704 17.2044 8.51227 17.2354 8.54413C17.2664 8.57599 17.291 8.61386 17.3078 8.65557C17.3246 8.69728 17.3333 8.74201 17.3334 8.7872ZM8.3334 9.18763H15.6672V9.96111H8.3334V9.18763Z" fill="#F4900C"/>
<path d="M8.66634 14.4148C8.66634 14.7956 8.46706 15.1041 8.22174 15.1041H7.77713C7.5318 15.1041 7.33252 14.7956 7.33252 14.4148V9.18825C7.33252 8.80738 7.5318 8.4989 7.77713 8.4989H8.22174C8.46706 8.4989 8.66634 8.80738 8.66634 9.18825V14.4148ZM16.6668 14.4148C16.6668 14.7956 16.4681 15.1041 16.2222 15.1041H15.7775C15.5322 15.1041 15.3329 14.7956 15.3329 14.4148V9.18825C15.3329 8.80738 15.5316 8.4989 15.7775 8.4989H16.2222C16.4675 8.4989 16.6668 8.80738 16.6668 9.18825V14.4148ZM11.3334 14.4148C11.3334 14.7956 11.1341 15.1041 10.8888 15.1041H10.4441C10.1988 15.1041 9.99954 14.7956 9.99954 14.4148V9.18825C9.99954 8.80738 10.1988 8.4989 10.4441 8.4989H10.8888C11.1341 8.4989 11.3334 8.80738 11.3334 9.18825V14.4148ZM13.9997 14.4148C13.9997 14.7956 13.8005 15.1041 13.5551 15.1041H13.1112C12.8658 15.1041 12.6666 14.7956 12.6666 14.4148V9.18825C12.6666 8.80738 12.8658 8.4989 13.1112 8.4989H13.5551C13.8005 8.4989 13.9997 8.80738 13.9997 9.18825V14.4148Z" fill="#FFD983"/>
<path d="M17.0004 14.7591C17.0004 15.14 16.7021 15.4485 16.3338 15.4485H7.66678C7.48999 15.4485 7.32044 15.3758 7.19542 15.2466C7.07041 15.1173 7.00018 14.9419 7.00018 14.7591C7.00018 14.5763 7.07041 14.4009 7.19542 14.2717C7.32044 14.1424 7.48999 14.0698 7.66678 14.0698H16.3338C16.7015 14.0698 17.0004 14.3782 17.0004 14.7591Z" fill="#FFCC4D"/>
<path d="M17.667 15.4485C17.667 15.8294 17.3687 16.1378 17.0004 16.1378H6.9996C6.82281 16.1378 6.65326 16.0652 6.52825 15.9359C6.40324 15.8067 6.33301 15.6313 6.33301 15.4485C6.33301 15.2657 6.40324 15.0903 6.52825 14.9611C6.65326 14.8318 6.82281 14.7592 6.9996 14.7592H16.9998C17.3681 14.7592 17.667 15.0676 17.667 15.4485Z" fill="#FFD983"/>
<path d="M18 15.9656C18 16.1028 17.9473 16.2343 17.8535 16.3313C17.7597 16.4283 17.6325 16.4828 17.4999 16.4828H6.50011C6.43443 16.4828 6.3694 16.4694 6.30872 16.4434C6.24805 16.4174 6.19292 16.3793 6.14648 16.3313C6.10004 16.2833 6.0632 16.2263 6.03807 16.1635C6.01294 16.1008 6 16.0335 6 15.9656C6 15.8977 6.01294 15.8304 6.03807 15.7677C6.0632 15.7049 6.10004 15.6479 6.14648 15.5999C6.19292 15.5519 6.24805 15.5138 6.30872 15.4878C6.3694 15.4618 6.43443 15.4484 6.50011 15.4484H17.5005C17.7761 15.4484 18 15.6799 18 15.9656Z" fill="#FFD983"/>
<path d="M17.0004 8.84328C17.0004 8.46241 16.6819 8.15393 16.2897 8.15393H7.66678C7.27389 8.15393 7.00018 8.46241 7.00018 8.84328C7.00018 9.10219 7.12884 9.32523 7.3338 9.44328V9.87762H8.66699V9.53262H10.0002V9.87762H11.3334V9.53262H12.6666V9.87762H13.9998V9.53262H15.333V9.87762H16.6668V9.42567C16.8667 9.30306 17.0004 9.08849 17.0004 8.84328Z" fill="#FFCC4D"/>
<path d="M6.66663 8.30652C6.66663 7.95108 7.00402 7.80891 7.00402 7.80891L11.9723 5.39587L16.9878 7.80891C16.9878 7.80891 17.3334 7.88848 17.3334 8.30913V8.49891H6.66663V8.30652Z" fill="#FFD983"/>
<path d="M11.9999 6.27179C11.9999 6.27179 8.55975 7.94852 8.21667 8.09983C7.87297 8.25048 7.98775 8.49831 8.2173 8.49831H15.7662C16.1206 8.49831 16.0367 8.21852 15.7555 8.06722C15.4742 7.91657 11.9999 6.27179 11.9999 6.27179Z" fill="#FFAC33"/>
<path d="M17.3334 8.49832C17.3334 8.58982 17.2982 8.67757 17.2357 8.74227C17.1731 8.80697 17.0883 8.84332 16.9998 8.84332H6.99957C6.91464 8.83792 6.8349 8.79922 6.7766 8.73511C6.71831 8.671 6.68585 8.58632 6.68585 8.49832C6.68585 8.41032 6.71831 8.32564 6.7766 8.26153C6.8349 8.19742 6.91464 8.15872 6.99957 8.15332L16.9998 8.15528C17.0435 8.15511 17.0868 8.16385 17.1272 8.181C17.1676 8.19816 17.2044 8.22339 17.2354 8.25525C17.2664 8.28711 17.291 8.32498 17.3078 8.36669C17.3246 8.4084 17.3333 8.45313 17.3334 8.49832Z" fill="#FFD983"/>
<rect x="0.5" y="0.5" width="23" height="23" rx="11.5" stroke="#F4900C"/>
</svg>
