<svg width="128" height="128" viewBox="0 0 128 128" fill="none" xmlns="http://www.w3.org/2000/svg">
<g id="discoveryMusic 1">
<g id="surface1">
<path id="Vector" d="M103.445 17.7735C101.418 16.2461 98.793 15.7891 96.375 16.5117L43.0391 32.6719C39.6523 33.6953 37.332 36.8477 37.332 40.418V81.0977C36.4531 80.9688 35.5781 80.8203 34.668 80.8203C24.3516 80.8203 16 89.2696 16 99.6758C16 110.078 24.3516 118.531 34.668 118.531C44.9805 118.531 53.332 110.078 53.332 99.6758V46.4258L90.668 35.1133V70.3203C89.7852 70.1914 88.9102 70.0469 88 70.0469C77.6836 70.0469 69.332 78.4961 69.332 88.9024C69.332 99.3047 77.6836 107.758 88 107.758C98.3164 107.758 106.668 99.3047 106.668 88.9024V24.2578C106.668 21.6953 105.465 19.2969 103.445 17.7735Z" fill="#B9BBBE"/>
</g>
</g>
</svg>
