<svg width="24" height="15" viewBox="0 0 24 15" fill="none" xmlns="http://www.w3.org/2000/svg">
<path d="M1.6 0.490173C0.7136 0.490173 0 1.20377 0 2.09017V13.2902C0 14.1766 0.7136 14.8902 1.6 14.8902H22.4C23.2864 14.8902 24 14.1766 24 13.2902V2.09017C24 1.20377 23.2864 0.490173 22.4 0.490173H1.6ZM1.6 2.09017H4C4.15823 2.09017 4.3129 2.13709 4.44446 2.225C4.57602 2.3129 4.67855 2.43785 4.7391 2.58403C4.79965 2.73021 4.8155 2.89106 4.78463 3.04625C4.75376 3.20143 4.67757 3.34398 4.56569 3.45586C4.4538 3.56774 4.31126 3.64393 4.15607 3.6748C4.00089 3.70567 3.84003 3.68983 3.69385 3.62928C3.54767 3.56873 3.42273 3.46619 3.33482 3.33463C3.24692 3.20307 3.2 3.0484 3.2 2.89017L2.4 3.69017C2.55823 3.69017 2.7129 3.73709 2.84446 3.825C2.97602 3.9129 3.07855 4.03785 3.1391 4.18403C3.19965 4.33021 3.2155 4.49106 3.18463 4.64625C3.15376 4.80143 3.07757 4.94398 2.96569 5.05586C2.8538 5.16774 2.71126 5.24393 2.55607 5.2748C2.40089 5.30567 2.24003 5.28983 2.09385 5.22928C1.94767 5.16873 1.82273 5.06619 1.73482 4.93463C1.64692 4.80307 1.6 4.6484 1.6 4.49017V2.09017ZM12 2.09017C14.208 2.09017 16 4.59737 16 7.69017C16 10.783 14.208 13.2902 12 13.2902C9.792 13.2902 8 10.783 8 7.69017C8 4.59737 9.792 2.09017 12 2.09017ZM20 2.09017H22.4V4.49017C22.4 4.6484 22.3531 4.80307 22.2652 4.93463C22.1773 5.06619 22.0523 5.16873 21.9061 5.22928C21.76 5.28983 21.5991 5.30567 21.4439 5.2748C21.2887 5.24393 21.1462 5.16774 21.0343 5.05586C20.9224 4.94398 20.8462 4.80143 20.8154 4.64625C20.7845 4.49106 20.8003 4.33021 20.8609 4.18403C20.9214 4.03785 21.024 3.9129 21.1555 3.825C21.2871 3.73709 21.4418 3.69017 21.6 3.69017L20.8 2.89017C20.8 3.0484 20.7531 3.20307 20.6652 3.33463C20.5773 3.46619 20.4523 3.56873 20.3061 3.62928C20.16 3.68983 19.9991 3.70567 19.8439 3.6748C19.6887 3.64393 19.5462 3.56774 19.4343 3.45586C19.3224 3.34398 19.2462 3.20143 19.2154 3.04625C19.1845 2.89106 19.2003 2.73021 19.2609 2.58403C19.3214 2.43785 19.424 2.3129 19.5555 2.225C19.6871 2.13709 19.8418 2.09017 20 2.09017ZM12 4.49017C11.4832 4.49017 11.1456 4.66457 10.9088 4.89017H13.0912C12.8544 4.66457 12.5168 4.49017 12 4.49017ZM10.6 5.29017C10.528 5.43577 10.5008 5.56377 10.472 5.69017H13.528C13.4992 5.56377 13.4736 5.43577 13.4 5.29017H10.6ZM10.4 6.09017V6.49017H13.6V6.09017H10.4ZM10.4 6.89017V7.29017H13.6V6.89017H10.4ZM10.4 7.69017V8.09017H13.6V7.69017H10.4ZM10.4 8.49017L10 8.89017H13.2L13.6 8.49017H10.4ZM9.6 9.29017C9.6 9.29017 9.656 9.45337 9.7632 9.69017H13.4L12.8 9.29017H9.6ZM2.4 10.0902C2.61217 10.0902 2.81566 10.1745 2.96569 10.3245C3.11571 10.4745 3.2 10.678 3.2 10.8902C3.2 11.1023 3.11571 11.3058 2.96569 11.4559C2.81566 11.6059 2.61217 11.6902 2.4 11.6902L3.2 12.4902C3.2 12.3319 3.24692 12.1773 3.33482 12.0457C3.42273 11.9142 3.54767 11.8116 3.69385 11.7511C3.84003 11.6905 4.00089 11.6747 4.15607 11.7055C4.31126 11.7364 4.4538 11.8126 4.56569 11.9245C4.67757 12.0364 4.75376 12.1789 4.78463 12.3341C4.8155 12.4893 4.79965 12.6501 4.7391 12.7963C4.67855 12.9425 4.57602 13.0674 4.44446 13.1553C4.3129 13.2433 4.15823 13.2902 4 13.2902H1.6V10.8902C1.6 10.678 1.68429 10.4745 1.83431 10.3245C1.98434 10.1745 2.18783 10.0902 2.4 10.0902ZM9.9808 10.0902C10.0544 10.2278 10.1024 10.3446 10.2 10.4902H13.8288C13.9344 10.2694 14 10.0902 14 10.0902H9.9808ZM21.6 10.0902C21.8122 10.0902 22.0157 10.1745 22.1657 10.3245C22.3157 10.4745 22.4 10.678 22.4 10.8902V13.2902H20C19.8418 13.2902 19.6871 13.2433 19.5555 13.1553C19.424 13.0674 19.3214 12.9425 19.2609 12.7963C19.2003 12.6501 19.1845 12.4893 19.2154 12.3341C19.2462 12.1789 19.3224 12.0364 19.4343 11.9245C19.5462 11.8126 19.6887 11.7364 19.8439 11.7055C19.9991 11.6747 20.16 11.6905 20.3061 11.7511C20.4523 11.8116 20.5773 11.9142 20.6652 12.0457C20.7531 12.1773 20.8 12.3319 20.8 12.4902L21.6 11.6902C21.3878 11.6902 21.1843 11.6059 21.0343 11.4559C20.8843 11.3058 20.8 11.1023 20.8 10.8902C20.8 10.678 20.8843 10.4745 21.0343 10.3245C21.1843 10.1745 21.3878 10.0902 21.6 10.0902ZM10.5056 10.8902C10.632 11.0358 10.7696 11.1718 10.9216 11.2902H13.1936C13.3536 11.167 13.4944 11.031 13.6 10.8902H10.5056Z" fill="#7E7E7E"/>
</svg>
