<svg width="16" height="17" viewBox="0 0 16 17" fill="none" xmlns="http://www.w3.org/2000/svg">
<path d="M8 0.690186C9.06087 0.690186 10.0783 1.11161 10.8284 1.86176C11.5786 2.6119 12 3.62932 12 4.69019C12 5.75105 11.5786 6.76847 10.8284 7.51861C10.0783 8.26876 9.06087 8.69019 8 8.69019C6.93914 8.69019 5.92172 8.26876 5.17157 7.51861C4.42143 6.76847 4 5.75105 4 4.69019C4 3.62932 4.42143 2.6119 5.17157 1.86176C5.92172 1.11161 6.93914 0.690186 8 0.690186ZM8 10.6902C12.42 10.6902 16 12.4802 16 14.6902V16.6902H1.90735e-06V14.6902C1.90735e-06 12.4802 3.58 10.6902 8 10.6902Z" fill="#7E7E7E"/>
</svg>
