<svg width="256" height="256" viewBox="0 0 256 256" fill="none" xmlns="http://www.w3.org/2000/svg">
<g id="iconStarFull 1">
<g id="surface1">
<path id="Vector" d="M213.328 94.4063L168.531 90.2109C164.258 90.2109 161.062 87.0625 159.992 83.9141L142.929 43.0078C139.726 34.6172 126.929 34.6172 123.726 43.0078L104.531 84.9688C103.461 88.1094 100.258 90.2109 95.992 91.2578L51.1951 94.4063C41.5935 95.4531 38.3904 106.992 44.7966 113.289L78.9295 142.656C82.1248 144.758 83.1951 148.953 82.1248 153.148L71.4607 196.156C69.3279 205.594 78.9295 211.891 87.4607 207.695L125.859 184.617C129.062 182.516 133.328 182.516 136.531 184.617L174.929 207.695C183.461 212.938 193.062 205.594 190.929 196.156L180.258 153.148C179.195 148.953 180.258 145.805 183.461 142.656L217.594 113.289C227.195 106.992 222.929 95.4531 213.328 94.4063ZM132.258 161.539L91.7263 185.664L102.39 140.563L67.1951 110.141L114.125 105.945L132.258 63.9844L150.39 105.945L197.328 110.141L162.125 140.563L172.797 185.664L132.258 161.539Z" fill="#F7A530"/>
<path id="Vector_2" d="M132.258 161.539L91.7266 185.664L102.391 140.562L67.1953 110.141L114.125 105.945L132.258 63.9844L150.391 105.945L197.328 110.141L162.125 140.562L172.797 185.664L132.258 161.539Z" fill="#F7A530"/>
</g>
</g>
</svg>
