<svg width="444" height="364" viewBox="0 0 444 364" fill="none" xmlns="http://www.w3.org/2000/svg">
<path d="M149.457 64.6968C151.557 62.9073 155.612 60.2247 158.364 58.7414C162.315 56.7532 180.343 51.8408 244.031 35.2565L244.129 35.2311C324.304 14.4239 324.662 14.3309 330.962 14.7777C334.447 15.0088 340.111 16.2903 343.61 17.6619C347.11 19.0336 351.737 21.4445 353.854 22.9875C355.947 24.4414 359.356 27.6481 361.393 29.9749C363.34 32.325 366.341 36.8781 368.053 40.1477C370.865 45.7989 371.09 45.9307 374.305 45.8515C376.09 45.7653 379.491 46.4 381.8 47.2252C384.424 48.1589 387.487 50.4076 393.573 57.2986L401.918 91.3415L400.465 98.8723C399.303 104.611 397.825 108.049 390.062 120.188L391.609 126.456C392.431 129.959 393.121 135.499 393.161 138.92C393.2 142.342 392.372 147.898 391.404 151.107C390.46 154.405 388.438 159.034 386.993 161.51C385.525 163.897 382.312 167.979 379.818 170.444C377.347 172.998 372.809 176.379 369.701 177.956C366.505 179.556 359.812 181.976 345.298 185.777L351.771 210.49C356.752 229.874 358.121 236.189 357.866 239.212C357.667 241.361 356.859 244.814 356.056 246.836C355.343 248.834 353.284 252.233 348.304 257.923L351.349 272.094C353.563 282.001 354.271 287.25 353.872 289.356C353.533 290.97 352.379 293.466 351.324 294.886C350.156 296.24 347.878 298.077 346.237 299.078C344.484 300.014 341.48 300.896 339.606 301.006C337.642 301.139 334.396 300.368 332.33 299.384C330.241 298.31 327.694 296.212 326.561 294.793C325.269 293.129 323.604 288.226 318.347 268.152L290.744 275.381L293.898 287.426C295.627 294.028 296.888 300.658 296.704 302.136C296.633 303.68 295.483 306.555 294.367 308.468C293.184 310.494 290.802 313.024 288.984 314.073C286.499 315.486 284.629 315.976 281.392 315.966C279.002 315.924 275.531 315.022 273.597 313.812C271.686 312.692 269.246 310.28 268.109 308.481C267.061 306.658 264.91 300.261 260.47 283.31L220.402 293.804L223.556 305.848C225.636 313.789 226.522 318.991 226.301 321.051C226.009 322.843 224.639 325.967 223.1 328.086C221.651 330.182 219.11 332.468 217.666 333.132C216.134 333.819 213.036 334.345 210.848 334.346C208.571 334.37 205.165 333.355 203.254 332.235C201.343 331.115 198.904 328.703 197.767 326.903C196.718 325.08 194.567 318.684 190.128 301.733L147.388 312.926L150.542 324.97C152.645 333 153.598 338.09 153.287 340.173C152.995 341.965 151.845 344.841 150.682 346.576C149.453 348.423 147.09 350.662 145.45 351.664C143.232 353.007 141.185 353.544 138.504 353.483C136.429 353.55 133.318 352.935 131.59 352.148C129.861 351.361 127.248 349.376 125.844 347.646C123.554 344.718 122.278 340.572 109.287 290.967C98.3512 249.212 95.2069 236.117 94.9947 231.31C94.7768 227.935 95.2491 222.472 95.9917 219.132C96.6453 215.814 98.3964 210.875 99.6821 208.155C101.057 205.411 103.955 201.22 106.159 198.736C108.363 196.252 112.297 192.743 114.931 190.814C119.249 187.681 121.606 186.873 153.854 177.76L150.721 167.616L146.574 168.13C144.255 168.357 140.188 168.087 137.368 167.491C134.636 166.871 130.959 165.546 129.339 164.445C127.742 163.434 125.241 161.514 123.799 160.367C122.422 159.107 119.927 155.756 118.284 152.754C115.823 148.441 114.617 144.562 111.869 132.983C109.609 122.897 108.718 117.315 108.949 114.203C109.167 111.763 110.458 107.611 111.744 104.891C113.029 102.171 115.421 98.5891 117.077 96.9163C118.619 95.1775 121.873 92.7047 124.113 91.4505C126.443 90.173 129.953 88.6816 132.09 88.122C135.385 87.2591 135.915 86.739 136.751 83.7553C137.244 82.0054 139.449 77.7097 141.597 74.2869C143.858 70.93 147.291 66.5988 149.457 64.6968Z" fill="#313147"/>
<path d="M21.4754 182.017C22.7611 179.297 25.5327 175.711 27.7221 173.898C30.5537 171.631 33.2395 170.26 37.4244 169.164C41.9655 167.975 44.3317 167.927 48.6512 168.798C51.6962 169.526 55.645 171.161 57.5136 172.483C59.3822 173.805 62.4071 176.636 64.2189 178.831C66.0073 180.936 68.7784 184.978 70.3508 187.712C71.9232 190.446 74.6596 197.261 76.5112 202.878C79.6813 212.439 79.7559 213.087 78.3211 214.512C77.2381 215.463 74.056 216.392 68.1281 217.372C63.3812 218.139 57.3832 218.851 54.7265 218.88C52.1822 218.974 47.3096 218.534 44.0441 218.055C40.7553 217.486 35.6445 215.774 32.6797 214.262C29.7804 212.638 26.1323 209.97 24.6388 208.264C23.1453 206.558 21.2779 203.424 20.4266 201.264C19.5286 198.925 18.9501 195.263 18.9804 192.109C19.0998 188.931 20.035 184.873 21.4754 182.017Z" fill="#313147"/>
<path fill-rule="evenodd" clip-rule="evenodd" d="M328.076 20.1096L334.588 21.3596C338.214 22.126 343.686 24.1252 346.786 25.7919C350.046 27.703 354.261 31.0801 356.751 34.0506C359.195 36.8427 361.877 40.9072 364.675 47.2295L320.201 59.0677C276.819 70.7154 275.685 71.1077 272.68 73.8016C271.001 75.3852 268.67 78.4744 267.624 80.6552C266.334 82.9952 265.464 86.9411 265.434 90.0952C265.351 94.5024 266.066 98.3195 269.226 108.932C272.246 119.01 273.925 123.242 276.242 126.639C277.922 129.059 280.82 132.495 282.604 134.221C284.501 136.012 288.374 138.811 291.362 140.412C294.261 142.036 299.306 143.861 302.618 144.519C305.931 145.177 311.136 145.434 314.215 145.2C317.495 145.008 331.122 141.821 346.972 137.67C361.93 133.752 375.793 129.645 377.879 128.527C379.988 127.498 382.383 126.108 383.293 125.583C384.844 124.605 385.003 124.849 386.245 131.77C387.291 137.216 387.307 140.549 386.362 145.658C385.605 149.67 383.722 154.835 381.818 158.098C379.913 161.362 376.279 165.651 368.032 172.673L224.676 210.217L219.148 209.091C216.15 208.541 210.903 206.674 207.578 204.876C204.276 203.166 199.953 200.103 197.987 198.044C196.02 195.985 193.09 191.7 191.466 188.407C189.707 184.959 187.191 177.895 182.565 160.23L188.789 157.837C192.257 156.548 195.364 154.971 195.758 154.296C196.196 153.546 195.956 152.75 195.038 151.91C193.798 150.805 190.967 151.26 142.853 163.003L137.925 161.625C135.259 160.893 131.779 159.23 130.201 157.927C128.557 156.737 126.207 154.302 125.003 152.615C123.168 150.331 121.803 146.207 118.579 133.895C114.7 119.085 114.527 117.7 115.388 112.994C115.891 110.193 117.145 106.623 118.219 104.911C119.293 103.2 121.741 100.557 123.71 98.9925C127.006 96.318 129.007 95.6032 151.267 89.7733C169.431 85.0161 175.594 83.116 176.162 82.014C176.645 81.3154 176.763 79.9498 176.529 79.0576C176.296 78.1654 175.195 77.5956 173.967 77.6311C172.852 77.7325 171.067 77.8187 170.064 77.986C168.391 78.1381 168.542 77.6221 170.812 73.2138C172.276 70.447 175.489 66.3642 177.917 64.0121C180.435 61.6366 183.932 59.0046 185.751 57.9563C187.771 56.9505 216.26 49.108 328.076 20.1096ZM285.728 74.579L282.956 85.7922L286.929 100.959C290.083 113.004 291.537 117.104 293.859 120.881C295.473 123.414 298.69 127.338 301.082 129.572C303.475 131.805 307.887 134.845 316.468 139.271L313.188 139.463C311.402 139.549 307.2 139.124 303.888 138.466C300.285 137.789 295.708 135.937 292.425 133.937C289.456 132.045 285.373 128.443 283.2 125.961C279.577 121.571 279.371 121.148 275.118 104.91C270.819 88.4942 270.772 88.3158 272.293 84.6761C273.095 82.6545 274.962 79.9728 276.444 78.7268C277.902 77.3915 280.564 75.9316 285.728 74.579ZM40.2554 174.524C44.3557 173.832 46.7687 173.962 49.8416 175.16C52.2634 176.051 55.7991 178.652 58.3087 181.332C60.7716 183.833 63.9967 188.518 65.7093 191.788C67.3329 195.081 69.4516 200.627 72.0686 210.62L69.1303 211.389C67.5932 211.696 63.09 212.304 59.2758 212.635C55.4382 212.878 49.8343 212.915 46.906 212.634C43.9544 212.262 39.1152 210.86 36.1503 209.349C33.1854 207.837 29.8978 205.457 28.7883 204.127C27.7444 202.684 26.3456 199.523 25.6914 197.025C25.0138 194.437 24.8849 191.039 25.3503 188.82C25.75 186.713 26.9 183.838 27.7771 182.464C28.5652 181.113 30.5721 178.967 32.0536 177.721C33.9335 176.18 36.4456 175.236 40.2554 174.524ZM231.949 215.463L339.956 187.176L346.101 210.64C349.863 225.005 352.217 235.447 352.178 237.841C352.139 240.235 351.017 243.579 349 246.777C347.358 249.59 344.807 252.928 340.986 256.503L344.724 270.778C347.014 279.521 348.317 285.949 348.021 287.361C347.767 288.572 346.852 290.527 345.994 291.61C345.248 292.759 343.031 294.102 341.25 294.569C338.757 295.222 336.878 294.951 330.724 291.796L326.508 276.788C323.642 266.575 321.912 261.784 321.083 261.525C320.366 261.331 312.348 263.05 303.177 265.452C293.917 267.877 285.861 270.177 285.218 270.632C284.243 271.268 284.607 273.747 287.504 284.81C289.864 293.821 290.91 299.268 290.623 301.44C290.397 303.12 289.421 305.569 288.408 306.787C287.46 307.893 285.332 309.213 283.819 309.61C282.216 310.03 279.985 310.232 278.866 309.954C277.746 309.675 275.901 308.442 274.815 307.201C273.298 305.406 271.914 301.573 269.226 291.313C266.656 281.499 265.291 277.376 264.279 276.783C263.492 276.322 261.595 276.342 260.17 276.715C258.478 277.158 256.398 276.845 251.433 274.236L246.947 257.106C243.302 243.188 242.077 239.6 240.588 238.274C239.323 237.08 237.625 233.139 235.287 226.029L231.949 215.463Z" fill="#ABBAF1"/>
<path fill-rule="evenodd" clip-rule="evenodd" d="M171.96 60.5195L167.316 68.2187C164.797 72.4059 162.348 76.8608 161.939 78.2072C161.296 80.4731 160.785 80.7023 142.391 84.9475L144.925 80.0891C146.323 77.4348 148.982 73.7829 150.858 71.8616C152.757 70.0296 156.029 67.2658 158.312 65.8099C160.482 64.2881 164.504 62.5675 171.96 60.5195ZM156.626 166.547L177.105 161.183L180.33 173.495C182.082 180.187 184.471 187.855 185.706 190.392C186.853 192.952 189.942 197.482 192.545 200.518C195.963 204.485 199.297 207.044 212.397 214.196L205.603 215.499C201.08 216.397 197.018 216.508 193.326 215.854C190.351 215.393 185.105 213.526 181.779 211.727C178.454 209.929 173.86 206.556 171.575 204.008C169.224 201.573 166.341 197.466 165.129 195.018C163.941 192.66 161.509 185.193 159.78 178.591L156.626 166.547ZM155.489 184.005L157.055 189.983C158.036 193.73 159.94 198.094 162.032 201.359C163.853 204.314 166.957 208.173 168.966 210.03C170.974 211.888 175.386 214.927 178.712 216.726C182.149 218.59 187.733 220.655 191.158 221.379C194.648 221.99 199.788 222.36 202.599 222.196C205.411 222.032 213.251 220.36 232.216 215.393L233.548 220.478C234.447 223.177 236.177 227.967 237.046 231.289C239.616 235.647 238.944 237.084 237.303 238.086C235.62 239.289 235.69 239.557 240.841 258.133C243.664 268.549 246.539 277.711 247.106 278.42C248.126 279.774 245.3 280.609 194.903 293.808C153.499 304.652 141.46 308.091 140.868 309.104C140.277 310.117 141.225 314.826 147.698 339.539L145.816 342.892C144.329 345.57 143.134 346.455 140.285 347.201C137.702 347.877 135.758 347.719 130.615 345.157L100.309 229.441L100.983 224.021C101.44 221.042 102.722 216.13 103.961 213.231C105.088 210.266 108.315 205.512 110.87 202.555C113.515 199.574 117.27 196.112 119.333 194.904C121.794 193.402 128.266 191.23 155.489 184.005ZM196.361 300.1L214.169 295.436L220.711 320.417L218.83 323.77C217.54 326.11 216.058 327.356 214.189 327.846C212.675 328.242 210.018 328.271 208.407 327.93C206.795 327.589 204.729 326.605 204.027 325.74C203.236 324.899 201.244 318.747 199.515 312.145L196.361 300.1Z" fill="#93A4E7"/>
<path d="M290.279 79.9655C291.016 78.0564 292.817 75.4873 294.275 74.1521C296.704 71.7999 299.53 70.9645 335.146 61.6366C373.256 51.6558 373.434 51.6092 377.866 52.5459C381 53.2505 383.248 54.5685 385.509 57.027C388.651 60.3037 388.838 61.0175 395.898 90.1533L394.445 97.6842C393.387 102.728 391.782 106.771 389.61 110.105C387.767 112.876 384.306 116.738 377.719 122.467L328.747 135.293L323.218 134.166C320.197 133.528 315.287 131.858 312.322 130.346C308.707 128.529 305.415 125.768 302.086 121.777C297.264 116.081 296.945 115.592 293.528 103.998C291.621 97.4422 289.794 90.103 289.519 87.6008C289.179 85.2112 289.519 81.7854 290.279 79.9655Z" fill="#C4D1F2"/>
<path d="M129.841 115.501C130.489 113.615 132.224 111.159 133.64 110.025C135.454 108.597 141.35 106.766 176.587 97.4427L178.13 101.519C179.028 103.858 181.179 110.255 182.918 115.805C184.658 121.356 186.083 126.798 186.073 127.85C186.152 128.878 184.875 132.358 183.303 135.44C180.882 140.364 180.001 141.357 177.329 142.057C175.638 142.5 173.941 142.563 173.534 142.098C173.127 141.632 167.691 142.675 159.944 144.703C149.437 147.455 146.34 147.98 143.407 147.318C141.327 147.005 138.61 145.714 137.145 144.478C134.822 142.512 134.247 141.042 131.536 130.692C128.732 119.986 128.63 118.869 129.841 115.501Z" fill="#93A4E7"/>
<path d="M128.953 106.295C130.19 105.208 132.426 103.574 133.758 102.844C135.089 102.114 145.502 99.0054 156.721 96.0672C174.216 91.2948 177.379 90.657 178.685 91.6495C179.407 92.2234 180.202 93.445 180.234 94.2947C180.454 95.858 178.429 96.4836 157.265 102.503C135.834 108.592 133.922 109.284 132.116 111.473C131.127 112.781 129.841 115.501 129.306 117.453C128.582 120.502 128.829 122.535 131.503 131.655C134.177 140.774 134.934 142.578 137.145 144.478C138.587 145.625 141.327 147.005 143.407 147.318C146.34 147.98 149.437 147.455 159.766 144.75C170.071 141.956 172.635 141.57 173.918 142.474C174.639 143.048 175.322 144.203 175.242 144.987C175.19 146.24 172.743 147.072 144.044 154.111L139.515 152.437C136.779 151.438 133.627 149.212 131.591 146.886C128.402 143.43 127.85 142.05 125.42 132.771C123.644 125.99 122.851 121.145 123.134 118.592C123.332 116.443 124.211 113.257 125.083 111.503C125.956 109.749 127.715 107.382 128.953 106.295Z" fill="#313147"/>
<path d="M231.205 105.447C231.993 104.097 233.316 102.606 233.958 102.152C234.6 101.698 236.222 100.987 237.646 100.614C238.959 100.175 241.639 100.236 243.63 100.573C245.644 100.998 248.361 102.289 249.649 103.572C250.913 104.767 252.462 107.412 252.976 109.375C253.514 111.427 253.436 114.402 252.878 116.265C252.319 118.127 250.785 120.626 249.547 121.713C248.309 122.8 245.891 124.101 244.377 124.497C242.774 124.917 239.916 124.903 237.991 124.454C236.089 124.094 233.391 122.512 232.057 121.05C230.722 119.588 229.356 117.277 228.982 115.849C228.631 114.511 228.605 112.23 228.943 110.616C229.305 109.091 230.305 106.732 231.205 105.447Z" fill="#313147"/>
<path d="M316.533 112.273C316.81 111.152 318.082 109.103 319.427 107.702C321.523 105.532 323.412 104.752 333.652 102.07C342.289 99.8079 346.211 99.162 348.427 99.6304C350.038 99.971 352.399 101.355 353.485 102.596C354.571 103.837 355.779 105.904 356.106 107.153C356.433 108.402 356.347 110.617 355.985 112.142C355.558 113.78 354.465 115.782 353.583 116.775C352.547 117.905 348.615 119.602 342.719 121.432C337.625 123.052 331.434 124.483 328.847 124.779C325.525 125.172 323.309 124.704 321.15 123.363C318.766 121.89 317.746 120.536 317.045 117.86C316.531 115.897 316.256 113.395 316.533 112.273Z" fill="#313147"/>
<path d="M359.897 99.105C360.573 97.6887 361.914 95.9073 362.889 95.2706C363.775 94.6572 367.689 93.251 371.517 92.2482C375.946 90.993 379.447 90.553 381.372 91.0021C382.984 91.3427 385.251 92.3697 386.243 93.2538C387.259 94.2271 388.56 96.6512 389.098 98.7032C389.892 101.737 389.708 103.215 388.221 105.892C386.317 109.156 386.162 109.292 377.08 111.67C369.268 113.812 367.506 113.987 365.037 112.918C363.356 112.309 361.37 110.541 360.504 109.052C359.662 107.652 358.876 105.379 358.816 104.06C358.756 102.741 359.311 100.498 359.897 99.105Z" fill="#313147"/>
<path d="M347.955 151.236C346.808 150.488 346.621 149.774 347.076 148.606C347.597 147.326 349.842 146.452 356.788 144.633C363.798 142.701 366.095 142.386 367.289 143.313C368.01 143.887 368.693 145.042 368.613 145.826C368.537 146.99 366.648 147.771 358.991 149.776C351.357 151.871 349.061 152.186 347.955 151.236Z" fill="#313147"/>
<path d="M322.135 115.859C321.994 115.324 322.314 114.001 322.928 113.077C323.782 111.614 326.294 110.67 335.287 108.315C343.212 106.24 347.022 105.528 348.033 106.121C348.82 106.582 349.616 107.804 349.873 108.785C350.13 109.767 350.035 111.222 349.552 111.92C349.05 112.91 345.404 114.246 337.657 116.275C328.219 118.747 326.101 119.015 324.415 118.027C323.314 117.457 322.298 116.484 322.135 115.859Z" fill="#ABBAF1"/>
<path d="M364.762 104.6C364.439 103.731 364.581 102.455 365.129 101.644C365.678 100.833 369.034 99.477 373.486 98.311C379.986 96.6087 381.012 96.5306 382.234 97.9267C382.936 98.7915 383.685 99.8347 383.825 100.37C383.942 100.816 383.599 102.05 382.985 102.974C382.263 104.211 380.041 105.175 375.322 106.411C370.692 107.623 368.283 107.873 367.047 107.148C366.147 106.621 365.085 105.469 364.762 104.6Z" fill="#ABBAF1"/>
</svg>
